<svg id="Capa_1" enable-background="new 0 0 508.484 508.484" height="512" viewBox="0 0 508.484 508.484" width="512" xmlns="http://www.w3.org/2000/svg"><g id="XMLID_258_"><g><path id="XMLID_1303_" d="m29.325 449.562c-10.372 11.896-16.675 27.427-16.675 44.412h31.168c0-9.649 3.769-18.43 9.904-24.965-9.281-4.865-17.569-11.479-24.397-19.447z"/><path id="XMLID_1308_" d="m454.476 468.711c6.303 6.565 10.189 15.466 10.189 25.264h31.168c0-17.224-6.478-32.957-17.111-44.916-6.769 8.026-15.003 14.713-24.246 19.652z"/><path id="XMLID_1309_" d="m479.784 313.048h-451.938c-.235 0-.466-.015-.7-.018l13.86 89.552c3.427 25.362 24.924 44.488 50.004 44.488h325.61c25.073 0 46.57-19.12 50.002-44.474l.046-.317 13.954-89.254c-.28.006-.557.023-.838.023z"/></g><path id="XMLID_1312_" d="m51.168 116.325c0-11.457 9.322-20.778 20.779-20.778s20.779 9.321 20.779 20.778v16.623h31.168v-16.623c0-28.643-23.303-51.946-51.947-51.946s-51.947 23.302-51.947 51.946v80.411h31.168z"/><path id="XMLID_298_" d="m0 223.2h508.484v61.568h-508.484z"/><path id="XMLID_1318_" d="m423.783 82.733c17.377 0 31.515-14.137 31.515-31.515 0-17.377-14.137-31.514-31.515-31.514-17.377 0-31.514 14.137-31.514 31.514s14.137 31.515 31.514 31.515z"/><path id="XMLID_1319_" d="m139.461 45.677c8.152 0 15.961-7.168 15.584-15.584-.378-8.443-6.847-15.584-15.584-15.584-8.152 0-15.961 7.168-15.584 15.584.378 8.444 6.847 15.584 15.584 15.584z"/><path id="XMLID_1320_" d="m482.31 169.311c8.152 0 15.961-7.168 15.584-15.584-.378-8.443-6.847-15.584-15.584-15.584-8.152 0-15.961 7.168-15.584 15.584.378 8.443 6.848 15.584 15.584 15.584z"/><path id="XMLID_259_" d="m429.594 195.284c-9.346-33.436-41.266-58.138-79.114-58.138-9.81 0-19.484 1.678-28.578 4.916-15.064-21.14-40.219-34.173-67.66-34.173s-52.596 13.034-67.66 34.173c-9.094-3.238-18.768-4.916-28.578-4.916-37.848 0-69.768 24.701-79.115 58.138z"/></g></svg>