<svg height="512" viewBox="0 0 512 512" width="512" xmlns="http://www.w3.org/2000/svg" xmlns:xlink="http://www.w3.org/1999/xlink"><linearGradient id="a" gradientUnits="userSpaceOnUse" x1="4.447" x2="519.558" y1="511.284" y2="-3.827" data-name="New Gradient Swatch 1"><stop offset="0" stop-color="#003f8a"/><stop offset=".518" stop-color="#00d7df"/><stop offset="1" stop-color="#006df0"/></linearGradient><linearGradient id="b" x1="-37.418" x2="477.693" xlink:href="#a" y1="469.418" y2="-45.693"/><linearGradient id="c" x1="-7.418" x2="507.693" xlink:href="#a" y1="499.418" y2="-15.693"/><g><path d="m496 256h-400v-16a8 8 0 0 0 -8-8h-8v-24h16v8a8 8 0 0 0 16 0v-32a8 8 0 0 0 -16 0v8h-16v-96a32.03 32.03 0 0 1 32-32h32a32.03 32.03 0 0 1 32 32v.68a48.069 48.069 0 0 0 -40 47.32 8 8 0 0 0 8 8h80a8 8 0 0 0 8-8 48.069 48.069 0 0 0 -40-47.32v-.68a48.051 48.051 0 0 0 -48-48h-32a48.051 48.051 0 0 0 -48 48v136h-8a8 8 0 0 0 -8 8v16h-32a8 8 0 0 0 -8 8v24a8 8 0 0 0 8 8h24v96a48.069 48.069 0 0 0 40 47.32v16.68a8 8 0 0 0 16 0v-16h320v16a8 8 0 0 0 16 0v-16.68a48.069 48.069 0 0 0 40-47.32v-96h24a8 8 0 0 0 8-8v-24a8 8 0 0 0 -8-8zm-312-144a32.058 32.058 0 0 1 30.99 24h-61.98a32.058 32.058 0 0 1 30.99-24zm-120 136h16v8h-16zm392 144a32.03 32.03 0 0 1 -32 32h-336a32.03 32.03 0 0 1 -32-32v-96h400zm32-112h-464v-8h464z" fill="url(#a)"/><path d="m80 328h64a8 8 0 0 0 0-16h-64a8 8 0 0 0 0 16z" fill="url(#b)"/><path d="m168 328h8a8 8 0 0 0 0-16h-8a8 8 0 0 0 0 16z" fill="url(#c)"/></g></svg>