<svg id="Capa_1" enable-background="new 0 0 512 512" height="512" viewBox="0 0 512 512" width="512" xmlns="http://www.w3.org/2000/svg"><g id="XMLID_23_"><path id="XMLID_43_" d="m485.989 305.927h26.011v-93h-78.1c-7.319-35.434-40.033-62.24-79.177-62.24-9.669 0-19.204 1.654-28.167 4.845-14.847-20.836-39.641-33.682-66.688-33.682-27.046 0-51.84 12.846-66.687 33.682-8.963-3.191-18.498-4.845-28.167-4.845-39.145 0-71.859 26.806-79.178 62.24h-25.836v-86c0-11.028 8.972-20 20-20s20 8.972 20 20v16h30v-16c0-27.57-22.43-50-50-50s-50 22.43-50 50v86h-30v93h26.162l15.087 97.467c1.592 11.853 6.599 22.523 13.916 31.042-18.749 11.451-31.291 32.106-31.291 55.637h30c0-19.379 15.766-35.146 35.146-35.146 0 0 324.231-.016 324.506-.019v.019h10.277c19.379 0 35.146 15.766 35.146 35.146h30c0-23.76-12.791-44.581-31.844-55.961 7.166-8.462 12.071-19.004 13.645-30.704zm-320.974-125.24c9.497 0 18.756 2.463 26.777 7.123l14.421 8.378 6.808-15.226c7.908-17.685 26.297-29.112 46.849-29.112s38.941 11.427 46.849 29.112l6.808 15.226 14.421-8.378c8.021-4.66 17.28-7.123 26.777-7.123 22.337 0 41.333 13.525 48.081 32.24h-285.873c6.748-18.715 25.745-32.24 48.082-32.24zm-135.015 62.24h452v33h-452zm69.296 182c-14.233 0-26.411-11.013-28.326-25.617l-14.452-93.383h399.106l-14.542 93.018-.053.366c-1.916 14.604-14.093 25.617-28.326 25.617h-313.407z"/><path id="XMLID_63_" d="m417.667 106.594c23.343 0 42.333-18.991 42.333-42.333s-18.991-42.333-42.333-42.333-42.333 18.991-42.333 42.333c-.001 23.342 18.99 42.333 42.333 42.333zm0-54.667c6.801 0 12.333 5.533 12.333 12.333 0 6.801-5.533 12.333-12.333 12.333s-12.333-5.533-12.333-12.333c-.001-6.8 5.532-12.333 12.333-12.333z"/><path id="XMLID_64_" d="m144 58.927c7.846 0 15.363-6.899 15-15-.364-8.127-6.591-15-15-15-7.846 0-15.363 6.899-15 15 .364 8.127 6.591 15 15 15z"/><path id="XMLID_65_" d="m474 177.927c7.846 0 15.363-6.899 15-15-.364-8.127-6.591-15-15-15-7.846 0-15.363 6.899-15 15 .364 8.127 6.591 15 15 15z"/></g></svg>