<svg height="512" viewBox="0 0 512 512" width="512" xmlns="http://www.w3.org/2000/svg" xmlns:xlink="http://www.w3.org/1999/xlink"><linearGradient id="a" gradientUnits="userSpaceOnUse" x1="19.73" x2="538.545" y1="515.312" y2="-3.503" data-name="New Gradient Swatch 1"><stop offset="0" stop-color="#003f8a"/><stop offset=".518" stop-color="#00d7df"/><stop offset="1" stop-color="#006df0"/></linearGradient><path d="m496 344h-8v-64a32.042 32.042 0 0 0 -32-32v-136a32.042 32.042 0 0 0 -32-32h-336a32.042 32.042 0 0 0 -32 32v136a32.042 32.042 0 0 0 -32 32v64h-8a8 8 0 0 0 -8 8v32a8 8 0 0 0 8 8h8v32a8 8 0 0 0 8 8h24a7.99 7.99 0 0 0 7.84-6.43l6.72-33.57h370.88l6.72 33.57a7.99 7.99 0 0 0 7.84 6.43h24a8 8 0 0 0 8-8v-32h8a8 8 0 0 0 8-8v-32a8 8 0 0 0 -8-8zm-424-232a16.021 16.021 0 0 1 16-16h336a16.021 16.021 0 0 1 16 16v136h-16v-32a32.042 32.042 0 0 0 -32-32h-96a32.042 32.042 0 0 0 -32 32v32h-16v-32a32.042 32.042 0 0 0 -32-32h-96a32.042 32.042 0 0 0 -32 32v32h-16zm336 104v32h-128v-32a16.021 16.021 0 0 1 16-16h96a16.021 16.021 0 0 1 16 16zm-176 0v32h-128v-32a16.021 16.021 0 0 1 16-16h96a16.021 16.021 0 0 1 16 16zm-192 64a16.021 16.021 0 0 1 16-16h400a16.021 16.021 0 0 1 16 16v64h-432zm9.44 136h-9.44v-24h14.24zm422.56 0h-9.44l-4.8-24h14.24zm16-40h-464v-16h464z" fill="url(#a)"/></svg>